<?xml version="1.0" encoding="utf-8"?>
<!-- Generator: Adobe Illustrator 24.0.2, SVG Export Plug-In . SVG Version: 6.00 Build 0)  -->
<svg version="1.1" class="a-icon laptop" xmlns="http://www.w3.org/2000/svg" xmlns:xlink="http://www.w3.org/1999/xlink" x="0px" y="0px"
	 viewBox="0 0 148.2 100" style="enable-background:new 0 0 148.2 100;" xml:space="preserve">
<g>
	<path d="M148.2,5.9c0-3.4-2.7-5.9-5.9-5.9H5.9C2.5,0,0,2.7,0,5.9v83h148.2V5.9z M140.7,77H7.5V8.4h133.4L140.7,77L140.7,77z"/>
	<path d="M5,100h138.2c2.7,0,5-3,5-6.6v-3.9h-58v1.4c0,2-1.8,3.9-4.1,3.9H62c-2.3,0-4.1-1.8-4.1-3.9v-1.4H0v3.9C0,97,2.3,100,5,100z
		"/>
</g>
</svg>
