<?xml version="1.0" encoding="utf-8"?>
<!-- Generator: Adobe Illustrator 24.0.2, SVG Export Plug-In . SVG Version: 6.00 Build 0)  -->
<svg version="1.1" class="a-icon tablet" xmlns="http://www.w3.org/2000/svg" xmlns:xlink="http://www.w3.org/1999/xlink" x="0px" y="0px"
	 viewBox="0 0 69.1 100" style="enable-background:new 0 0 69.1 100;" xml:space="preserve">
<g>
	<path d="M63.4,0H5.8C2.6,0,0,2.6,0,5.8v88.5c0,3.2,2.6,5.8,5.8,5.8h57.6c3.2,0,5.8-2.6,5.8-5.8V5.8C69.2,2.6,66.5,0,63.4,0z
		 M34.6,97.4c-2.7,0-4.8-2.2-4.8-4.8c0-2.7,2.2-4.8,4.8-4.8c2.7,0,4.8,2.2,4.8,4.8C39.3,95.2,37.3,97.4,34.6,97.4z M63.5,83.8H5.6V6
		h57.8V83.8z"/>
	<circle cx="34.6" cy="92.6" r="2.9"/>
</g>
</svg>
