<?xml version="1.0" encoding="utf-8"?>
<!-- Generator: Adobe Illustrator 24.0.2, SVG Export Plug-In . SVG Version: 6.00 Build 0)  -->
<svg version="1.1" class="a-icon mobile" xmlns="http://www.w3.org/2000/svg" xmlns:xlink="http://www.w3.org/1999/xlink" x="0px" y="0px"
	 viewBox="0 0 51.6 100" style="enable-background:new 0 0 51.6 100;" xml:space="preserve">
<g>
	<path d="M46.1,0H5.5C2.5,0,0,2.5,0,5.5v88.9c0,3.1,2.5,5.5,5.5,5.5h40.5c3.1,0,5.5-2.5,5.5-5.5V5.7C51.6,2.6,49.1,0,46.1,0z
		 M25.8,97.5c-2.6,0-4.6-2.1-4.6-4.6s2.1-4.6,4.6-4.6c2.6,0,4.6,2.1,4.6,4.6S28.4,97.5,25.8,97.5z M46.2,84.6H5.4V9.8h40.8V84.6z"/>
	<circle cx="25.8" cy="92.9" r="2.8"/>
</g>
</svg>
