<svg version="1.1" class="portfolio" xmlns="http://www.w3.org/2000/svg" xmlns:xlink="http://www.w3.org/1999/xlink" x="0px" y="0px"
	 viewBox="0 0 100 100" style="enable-background:new 0 0 100 100;" xml:space="preserve">
<path class="path-cs" d="M85.9,94.7H15v-90h70.9V94.7z M18,89.8h65.1V9.5H18V89.8z"/>
<path class="path-cs" d="M64,51.4H37.1c-1.2,0-2.2-0.6-2.6-1.7c-0.4-1-0.3-2.2,0.4-3l5.2-5.9c1-1.2,3-1.3,4.2-0.1l2.5,2.5l0.1-0.1
	l6.7-6.7c1.2-1.4,3.5-1.3,4.5,0.1l8.1,10.4c0.7,0.9,0.7,2,0.3,3S65,51.4,64,51.4z M42.3,42.6l-5.2,5.9H64l-8.1-10.4l-0.1,0.1
	l-6.7,6.7c-1,1.3-3,1.4-4.2,0.1L42.3,42.6z"/>
<path class="path-cs" d="M41.1,35.5c-3.2,0-5.8-2.6-5.8-5.8s2.6-5.8,5.8-5.8c3.2,0,5.8,2.6,5.8,5.8S44.3,35.5,41.1,35.5z
	 M41.1,26.8c-1.6,0-2.9,1.3-2.9,2.9s1.3,2.9,2.9,2.9s2.9-1.3,2.9-2.9S42.7,26.8,41.1,26.8z"/>
<rect class="path-cs" x="9.3" y="14.4" width="2.9" height="70.5"/>
<rect class="path-cs" x="3.5" y="19.3" width="2.9" height="60.8"/>
<rect class="path-cs" x="88.8" y="14.4" width="2.9" height="70.5"/>
<rect class="path-cs" x="94.6" y="19.3" width="2.9" height="60.8"/>
<rect class="path-cs" x="74.8" y="11.2" width="6.5" height="6.3"/>
<rect class="path-cs" x="20.5" y="11.2" width="50.2" height="6.3"/>
<rect class="path-cs" x="21.8" y="56.7" width="57.3" height="3.2"/>
<rect class="path-cs" x="21.8" y="63" width="57.3" height="3.2"/>
<rect class="path-cs" x="21.8" y="69.5" width="57.3" height="3.2"/>
<rect class="path-cs" x="21.8" y="76" width="57.3" height="3.2"/>
</svg>