<?xml version="1.0" encoding="utf-8"?>
<!-- Generator: Adobe Illustrator 25.0.0, SVG Export Plug-In . SVG Version: 6.00 Build 0)  -->
<svg version="1.1" id="a-icon" xmlns="http://www.w3.org/2000/svg" xmlns:xlink="http://www.w3.org/1999/xlink" x="0px" y="0px"
	 viewBox="0 0 120 120" style="enable-background:new 0 0 120 120;" xml:space="preserve">
<style type="text/css">
	.st0{fill:#6B6B6B;}
	.st1{fill:#707070;}
</style>
<path id="a-element_3_" class="st0" d="M118.8,1.2h-1.2H97.2v0h20.4L118.8,1.2l0,1.2v20.4h0V1.2 M120,0v24h-2.4V2.4H96V0h21.6H120z"
	/>
<path id="a-element_2_" class="st1" d="M118.8,118.8v-1.2V97.2h0v20.4L118.8,118.8l-1.2,0H97.2v0H118.8 M120,120H96v-2.4h21.6V96
	h2.4v21.6V120z"/>
<path id="a-element_1_" class="st1" d="M1.2,1.2v1.2v20.4h0V2.4L1.2,1.2l1.2,0h20.4v0H1.2 M0,0h24v2.4H2.4V24H0C0,22.7,0,0.6,0,0z"
	/>
<path id="a-element" class="st1" d="M1.2,118.8h1.2h20.4v0H2.4L1.2,118.8l0-1.2V97.2h0V118.8 M0,120V96h2.4v21.6H24v2.4H2.4H0z"/>
</svg>
